<svg width="41" height="42" viewBox="0 0 41 42" fill="none" xmlns="http://www.w3.org/2000/svg">
<path d="M20.3003 13.9361C16.5729 13.9361 13.5312 16.9779 13.5312 20.7052C13.5312 24.4325 16.5729 27.4743 20.3003 27.4743C24.0276 27.4743 27.0694 24.4325 27.0694 20.7052C27.0694 16.9779 24.0276 13.9361 20.3003 13.9361ZM40.6026 20.7052C40.6026 17.9021 40.628 15.1243 40.4706 12.3263C40.3132 9.07629 39.5718 6.19192 37.1952 3.81536C34.8136 1.43372 31.9343 0.697389 28.6843 0.539967C25.8812 0.382545 23.1034 0.407936 20.3054 0.407936C17.5022 0.407936 14.7245 0.382545 11.9265 0.539967C8.67646 0.697389 5.79209 1.43879 3.41552 3.81536C1.03388 6.197 0.297555 9.07629 0.140133 12.3263C-0.0172884 15.1294 0.00810226 17.9072 0.00810226 20.7052C0.00810226 23.5032 -0.0172884 26.2861 0.140133 29.0841C0.297555 32.3341 1.03896 35.2185 3.41552 37.595C5.79717 39.9767 8.67646 40.713 11.9265 40.8704C14.7296 41.0278 17.5073 41.0025 20.3054 41.0025C23.1085 41.0025 25.8862 41.0278 28.6843 40.8704C31.9343 40.713 34.8187 39.9716 37.1952 37.595C39.5769 35.2134 40.3132 32.3341 40.4706 29.0841C40.6331 26.2861 40.6026 23.5083 40.6026 20.7052ZM20.3003 31.1204C14.5366 31.1204 9.88506 26.4689 9.88506 20.7052C9.88506 14.9415 14.5366 10.29 20.3003 10.29C26.064 10.29 30.7155 14.9415 30.7155 20.7052C30.7155 26.4689 26.064 31.1204 20.3003 31.1204ZM31.1421 12.2958C29.7964 12.2958 28.7097 11.2091 28.7097 9.8634C28.7097 8.5177 29.7964 7.43098 31.1421 7.43098C32.4878 7.43098 33.5745 8.5177 33.5745 9.8634C33.5749 10.1829 33.5123 10.4994 33.3902 10.7947C33.2681 11.09 33.0889 11.3583 32.863 11.5843C32.637 11.8102 32.3687 11.9894 32.0734 12.1115C31.7781 12.2336 31.4616 12.2962 31.1421 12.2958Z" fill="white"/>
</svg>
