<svg width="53" height="52" viewBox="0 0 53 52" fill="none" xmlns="http://www.w3.org/2000/svg">
<path d="M4.6423 47.0436L7.57163 36.4427C5.64143 33.184 4.62734 29.4778 4.63364 25.7052C4.63364 13.92 14.3338 4.36681 26.3003 4.36681C38.2668 4.36681 47.967 13.92 47.967 25.7052C47.967 37.4904 38.2668 47.0436 26.3003 47.0436C22.4713 47.0497 18.7097 46.0517 15.402 44.1523L4.6423 47.0436ZM18.4808 15.6932C18.201 15.7103 17.9276 15.7829 17.677 15.9066C17.4419 16.0377 17.2274 16.2016 17.04 16.3931C16.78 16.6343 16.6326 16.8434 16.4745 17.0461C15.6737 18.0725 15.243 19.3323 15.2503 20.6267C15.2546 21.6723 15.532 22.6901 15.9653 23.6418C16.8515 25.5665 18.3096 27.6043 20.2358 29.4928C20.6995 29.9473 21.1523 30.4039 21.6398 30.8286C24.0305 32.9015 26.8793 34.3964 29.9598 35.1944L31.1926 35.38C31.5935 35.4014 31.9943 35.3715 32.3973 35.3523C33.0283 35.3202 33.6445 35.1519 34.2021 34.8594C34.4859 34.7154 34.7628 34.5588 35.032 34.3899C35.032 34.3899 35.1251 34.3302 35.3028 34.1979C35.5953 33.9845 35.7751 33.833 36.0178 33.5833C36.1976 33.3998 36.3536 33.1843 36.4728 32.9389C36.6418 32.5911 36.8108 31.9275 36.8801 31.3748C36.9321 30.9523 36.917 30.7219 36.9105 30.5789C36.9018 30.3506 36.709 30.1137 36.4988 30.0134L35.2378 29.4565C35.2378 29.4565 33.3528 28.6478 32.2023 28.1314C32.081 28.0793 31.951 28.0497 31.8188 28.0439C31.6706 28.0289 31.5208 28.0453 31.3795 28.0921C31.2382 28.1388 31.1088 28.2148 30.9998 28.3149V28.3106C30.989 28.3106 30.8438 28.4323 29.2773 30.3015C29.1874 30.4205 29.0635 30.5104 28.9215 30.5598C28.7795 30.6092 28.6258 30.6159 28.48 30.5789C28.3388 30.5417 28.2005 30.4947 28.0661 30.4381C27.7975 30.3271 27.7043 30.2844 27.5201 30.2055L27.5093 30.2012C26.2698 29.6682 25.1221 28.9483 24.1076 28.0674C23.8346 27.8326 23.5811 27.5766 23.3211 27.3291C22.4687 26.5251 21.7258 25.6156 21.1111 24.6234L20.9833 24.4206C20.8915 24.2844 20.8172 24.1375 20.7623 23.9832C20.68 23.6695 20.8945 23.4177 20.8945 23.4177C20.8945 23.4177 21.421 22.8501 21.6658 22.5429C21.8697 22.2875 22.0599 22.0218 22.2356 21.7469C22.4913 21.3415 22.5715 20.9254 22.4371 20.6032C21.8305 19.1437 21.2021 17.6905 20.5565 16.248C20.4286 15.9621 20.0495 15.7572 19.705 15.7167C19.588 15.7039 19.471 15.6911 19.354 15.6826C19.063 15.6683 18.7714 15.6712 18.4808 15.6911V15.6932Z" fill="white"/>
</svg>
