<svg width="100" height="61" viewBox="0 0 100 61" fill="none" xmlns="http://www.w3.org/2000/svg">
<g filter="url(#filter0_dd_2_11)">
<path d="M22.0952 57.0839C18.9757 57.0839 16.844 56.486 15.7002 55.2902C14.5564 54.0424 13.9845 52.1447 13.9845 49.5972C13.9845 48.7133 14.0365 47.2835 14.1405 45.3079C14.2444 43.3322 14.4784 40.2647 14.8423 36.1054C14.4264 35.3255 14.0625 34.6496 13.7505 34.0777C13.4386 33.5058 13.1266 32.9079 12.8147 32.284C12.5027 31.6601 12.1648 30.9322 11.8008 30.1003C11.4369 29.2685 10.969 28.2286 10.3971 26.9808C9.51321 25.0572 8.49938 22.8215 7.35557 20.2739C6.26374 17.7264 5.19792 15.2828 4.15809 12.9431C3.11826 10.5515 2.2344 8.44587 1.50652 6.62617C0.830629 4.80646 0.492684 3.66265 0.492684 3.19472C0.492684 2.1029 2.2344 1.55699 5.71783 1.55699C7.90148 1.55699 9.64319 1.79095 10.943 2.25888C12.2948 2.67481 13.3866 3.27271 14.2184 4.05259C15.0503 4.78047 15.6742 5.66432 16.0901 6.70415C16.5061 7.69199 16.896 8.75782 17.26 9.90163C17.7279 11.4094 18.0658 12.5272 18.2738 13.2551C18.4818 13.983 18.6377 14.5809 18.7417 15.0488C18.8977 15.5167 19.0537 15.9846 19.2096 16.4526C19.3656 16.8685 19.5736 17.5444 19.8335 18.4802C20.1455 19.4161 20.5614 20.7159 21.0813 22.3796C21.6012 24.0433 22.3291 26.331 23.265 29.2425C24.7727 26.071 25.9685 23.4974 26.8524 21.5217C27.7882 19.5461 28.5941 17.7264 29.27 16.0626C29.9459 14.3469 30.5698 12.6052 31.1417 10.8375C31.7656 9.01777 32.5455 6.73015 33.4813 3.9746C33.7933 2.98676 34.1052 2.36286 34.4172 2.1029C34.7811 1.79095 35.327 1.63498 36.0549 1.63498C36.3148 1.63498 37.0167 1.68697 38.1605 1.79095C39.3563 1.84295 40.5781 2.02492 41.8259 2.33687C43.1257 2.64881 44.2955 3.14273 45.3354 3.81862C46.3752 4.49451 46.8951 5.40437 46.8951 6.54818C46.8951 7.43203 46.5832 8.67983 45.9593 10.2916C45.3874 11.9033 44.6075 13.723 43.6197 15.7507C42.6838 17.7264 41.566 19.832 40.2662 22.0676C39.0184 24.3033 37.7186 26.4869 36.3668 28.6186C35.0151 30.7502 33.6633 32.7259 32.3115 34.5456C31.0117 36.3133 29.8159 37.7691 28.7241 38.9129C28.6721 40.1607 28.5941 41.6425 28.4901 43.3582C28.4381 45.0739 28.3341 46.7896 28.1782 48.5053C28.0742 50.1691 27.9702 51.7028 27.8662 53.1066C27.7622 54.4584 27.6843 55.3942 27.6323 55.9141C27.5803 56.3301 27.4763 56.642 27.3203 56.85C27.1643 57.006 26.8524 57.0839 26.3845 57.0839H22.0952ZM93.1708 52.0148C93.1708 52.4307 92.9109 52.9766 92.3909 53.6525C91.923 54.2764 91.2471 54.9003 90.3633 55.5242C89.5314 56.1481 88.5436 56.694 87.3998 57.1619C86.3079 57.6298 85.1381 57.8638 83.8903 57.8638C81.9666 57.8638 80.2769 57.2659 78.8212 56.0701C77.3654 54.8223 76.0396 53.1326 74.8438 51.0009C73.7 48.8693 72.6342 46.3477 71.6463 43.4362C70.6585 40.4726 69.6447 37.2752 68.6048 33.8437L65.6413 35.7934L64.1596 55.9141C64.1076 56.3301 64.0036 56.642 63.8476 56.85C63.6916 57.006 63.3797 57.0839 62.9118 57.0839H58.6225C55.6589 57.0839 53.5533 56.512 52.3055 55.3682C51.1097 54.1724 50.5118 52.4307 50.5118 50.1431C50.5118 49.4152 50.5378 48.3234 50.5898 46.8676C50.6937 45.3598 50.8237 43.6181 50.9797 41.6425C51.1357 39.6148 51.2916 37.4051 51.4476 35.0135C51.6556 32.6219 51.8636 30.1783 52.0715 27.6827C52.4355 22.6915 52.7214 18.7402 52.9294 15.8287C53.1893 12.9171 53.3713 10.6295 53.4753 8.96578C53.5793 7.25006 53.6573 6.00227 53.7093 5.22239C53.7612 4.39053 53.7872 3.61065 53.7872 2.88277C53.7872 2.1029 54.2032 1.71297 55.035 1.71297H59.3243C60.9881 1.71297 62.3139 1.89494 63.3017 2.25888C64.3415 2.57083 65.1474 3.03875 65.7193 3.66265C66.2912 4.28655 66.6811 5.06642 66.8891 6.00227C67.0971 6.88612 67.2011 7.92595 67.2011 9.12176C67.2011 10.3176 67.1231 12.2672 66.9671 14.9708C66.8631 17.6224 66.6811 20.6119 66.4212 23.9393C68.1889 21.7557 70.2945 19.0521 72.7382 15.8287C75.2337 12.6052 78.2493 8.62784 81.7847 3.89661C81.9407 3.68864 82.1486 3.42869 82.4086 3.11674C82.7205 2.75279 83.0325 2.41485 83.3444 2.1029C83.7084 1.79095 84.0723 1.531 84.4362 1.32303C84.8522 1.06307 85.2421 0.933093 85.6061 0.933093C86.2819 0.933093 87.0618 1.29703 87.9457 2.02492C88.8295 2.70081 89.6614 3.55867 90.4413 4.5985C91.2211 5.58633 91.871 6.62616 92.3909 7.71799C92.9629 8.75782 93.2488 9.64167 93.2488 10.3696C93.2488 11.8773 91.897 14.1389 89.1935 17.1544C86.4899 20.118 82.6165 23.5494 77.5734 27.4488C78.4572 28.9565 79.4711 30.5943 80.6149 32.362C81.7587 34.0777 82.9025 35.8454 84.0463 37.6651C85.1901 39.4328 86.3079 41.1745 87.3998 42.8903C88.4916 44.554 89.4534 46.0617 90.2853 47.4135C91.1691 48.7133 91.871 49.7791 92.3909 50.611C92.9109 51.4429 93.1708 51.9108 93.1708 52.0148Z" fill="#FFF06A"/>
</g>
<defs>
<filter id="filter0_dd_2_11" x="0.492676" y="0.93309" width="98.7119" height="59.5777" filterUnits="userSpaceOnUse" color-interpolation-filters="sRGB">
<feFlood flood-opacity="0" result="BackgroundImageFix"/>
<feColorMatrix in="SourceAlpha" type="matrix" values="0 0 0 0 0 0 0 0 0 0 0 0 0 0 0 0 0 0 127 0" result="hardAlpha"/>
<feOffset dx="5.9557" dy="2.64698"/>
<feComposite in2="hardAlpha" operator="out"/>
<feColorMatrix type="matrix" values="0 0 0 0 0.9125 0 0 0 0 0.20151 0 0 0 0 0.457467 0 0 0 1 0"/>
<feBlend mode="normal" in2="BackgroundImageFix" result="effect1_dropShadow_2_11"/>
<feColorMatrix in="SourceAlpha" type="matrix" values="0 0 0 0 0 0 0 0 0 0 0 0 0 0 0 0 0 0 127 0" result="hardAlpha"/>
<feOffset dx="1.32349" dy="2.64698"/>
<feComposite in2="hardAlpha" operator="out"/>
<feColorMatrix type="matrix" values="0 0 0 0 0.992157 0 0 0 0 0.333333 0 0 0 0 0.333333 0 0 0 1 0"/>
<feBlend mode="normal" in2="effect1_dropShadow_2_11" result="effect2_dropShadow_2_11"/>
<feBlend mode="normal" in="SourceGraphic" in2="effect2_dropShadow_2_11" result="shape"/>
</filter>
</defs>
</svg>
